<?xml version="1.0" encoding="UTF-8" standalone="no"?>
<!-- Created with Inkscape (http://www.inkscape.org/) -->

<svg
   width="70.078407mm"
   height="7.3173933mm"
   viewBox="0 0 70.078407 7.3173933"
   version="1.1"
   id="svg5"
   inkscape:version="1.1 (c4e8f9e, 2021-05-24)"
   sodipodi:docname="goirishlogo.svg"
   xmlns:inkscape="http://www.inkscape.org/namespaces/inkscape"
   xmlns:sodipodi="http://sodipodi.sourceforge.net/DTD/sodipodi-0.dtd"
   xmlns="http://www.w3.org/2000/svg"
   xmlns:svg="http://www.w3.org/2000/svg">
  <sodipodi:namedview
     id="namedview7"
     pagecolor="#ffffff"
     bordercolor="#111111"
     borderopacity="1"
     inkscape:pageshadow="0"
     inkscape:pageopacity="0"
     inkscape:pagecheckerboard="1"
     inkscape:document-units="mm"
     showgrid="false"
     fit-margin-top="0"
     fit-margin-left="0"
     fit-margin-right="0"
     fit-margin-bottom="0"
     inkscape:zoom="0.8359833"
     inkscape:cx="382.18467"
     inkscape:cy="114.83483"
     inkscape:window-width="1440"
     inkscape:window-height="900"
     inkscape:window-x="0"
     inkscape:window-y="0"
     inkscape:window-maximized="0"
     inkscape:current-layer="layer1" />
  <defs
     id="defs2">
    <rect
       x="68.598427"
       y="399.1181"
       width="332.59842"
       height="164.22047"
       id="rect429" />
  </defs>
  <g
     inkscape:label="Layer 1"
     inkscape:groupmode="layer"
     id="layer1"
     transform="translate(-98.402268,-117.9318)">
    <g
       aria-label="GoIRISH.com"
       transform="matrix(0.26458333,0,0,0.26458333,79.756378,15.191691)"
       id="text427"
       style="font-weight:bold;font-size:40px;line-height:0.25;font-family:Baskerville;-inkscape-font-specification:'Baskerville, Bold';white-space:pre;shape-inside:url(#rect429);fill:#ffffff">
      <path
         d="m 87.035156,405.1841 v -2.14844 H 99.4375 v 2.14844 q -1.484375,0.25391 -1.933594,0.87891 -0.449219,0.60547 -0.449219,2.53906 v 5.54687 q -0.625,-0.0391 -1.015625,-0.0391 -1.933593,0 -6.542968,0.9961 -3.300782,0.70312 -5.527344,0.70312 -6.035156,0 -9.765625,-4.02344 -3.730469,-4.04297 -3.730469,-9.41406 0,-5.76172 3.925781,-9.90234 3.945313,-4.16016 9.765625,-4.16016 4.746094,0 8.339844,3.02734 0.625,-1.28906 0.761719,-2.7539 h 2.089844 l 0.234375,9.25781 h -2.128907 q -2.011718,-6.75781 -7.851562,-6.75781 -3.476563,0 -5.3125,2.55859 -1.816406,2.5586 -1.816406,8.59375 0,4.23828 0.527343,6.44531 0.546875,2.20704 2.070313,3.41797 1.542969,1.21094 3.984375,1.21094 2.167969,0 3.59375,-0.9375 1.425781,-0.9375 1.425781,-3.69141 v -0.97656 q 0,-2.32422 -3.046875,-2.51953 z"
         id="path1117"
         style="fill:#ffffff" />
      <path
         d="m 101.72266,407.21535 q 0,-4.02344 2.85156,-6.30859 2.85156,-2.28516 6.89453,-2.28516 3.94531,0 6.875,2.22656 2.92969,2.20703 2.92969,6.38672 0,3.96485 -2.8711,6.32813 -2.87109,2.34375 -6.95312,2.34375 -3.98438,0 -6.85547,-2.22657 -2.87109,-2.24609 -2.87109,-6.46484 z m 6.69922,-0.19531 q 0,3.75 0.68359,5.2539 0.70312,1.48438 2.42187,1.48438 1.38672,0 2.20704,-1.25 0.83984,-1.25 0.83984,-5.33203 0,-3.71094 -0.74219,-5.01953 -0.74219,-1.32813 -2.34375,-1.32813 -1.26953,0 -2.16797,1.13281 -0.89843,1.11329 -0.89843,5.0586 z"
         id="path1119"
         style="fill:#ffffff" />
      <path
         d="m 123.79297,390.94582 v -2.16797 h 14.0039 v 2.16797 h -0.41015 q -1.97266,0 -2.57813,0.74219 -0.58593,0.72265 -0.58593,2.5 v 15.66406 q 0,1.81641 0.60546,2.53906 0.625,0.70313 2.5586,0.70313 h 0.41015 v 2.16797 h -14.0039 v -2.16797 q 2.10937,0 2.79297,-0.64453 0.70312,-0.64454 0.70312,-2.59766 v -15.66406 q 0,-1.89453 -0.66406,-2.5586 -0.64453,-0.68359 -2.83203,-0.68359 z"
         id="path1121"
         style="fill:#ffffff" />
      <path
         d="m 150.39453,403.58254 v 6.26953 q 0,1.81641 0.625,2.53906 0.625,0.70313 2.55859,0.70313 h 0.46875 v 2.16797 h -14.27734 v -2.16797 h 0.52734 q 1.99219,0 2.57813,-0.72266 0.60547,-0.74219 0.60547,-2.51953 v -15.66406 q 0,-1.81641 -0.625,-2.51953 -0.625,-0.72266 -2.5586,-0.72266 h -0.52734 v -2.16797 l 10.625,-0.0195 2.38281,-0.0195 q 3.53516,0 5.15625,0.23437 1.64063,0.23438 3.22266,1.13282 1.58203,0.8789 2.48047,2.42187 0.91797,1.54297 0.91797,3.32031 0,4.72657 -5.35157,6.46485 1.42579,0.89843 4.4336,5.625 2.34375,3.65234 3.33984,4.41406 0.9961,0.74219 2.1875,0.74219 v 2.16797 h -8.28125 q -1.13281,-1.34766 -4.19922,-6.83594 -1.54297,-2.77344 -2.16797,-3.57422 -0.625,-0.80078 -1.28906,-1.01563 -0.64453,-0.23437 -2.83203,-0.2539 z m 0,-2.38281 q 3.30078,0.0391 4.45313,-0.39063 1.15234,-0.44922 1.8164,-1.58203 0.66406,-1.15234 0.66406,-3.10547 0,-2.79297 -1.32812,-3.86719 -1.30859,-1.07422 -4.53125,-1.07422 -0.41016,0 -1.07422,0.0195 z"
         id="path1123"
         style="fill:#ffffff" />
      <path
         d="m 170.04297,390.94582 v -2.16797 h 14.0039 v 2.16797 h -0.41015 q -1.97266,0 -2.57813,0.74219 -0.58593,0.72265 -0.58593,2.5 v 15.66406 q 0,1.81641 0.60546,2.53906 0.625,0.70313 2.5586,0.70313 h 0.41015 v 2.16797 h -14.0039 v -2.16797 q 2.10937,0 2.79297,-0.64453 0.70312,-0.64454 0.70312,-2.59766 v -15.66406 q 0,-1.89453 -0.66406,-2.5586 -0.64453,-0.68359 -2.83203,-0.68359 z"
         id="path1125"
         style="fill:#ffffff" />
      <path
         d="m 187.44531,414.81301 v -9.0625 h 2.34375 q 0.97656,4.0625 2.92969,5.80078 1.95312,1.73828 4.21875,1.73828 1.67969,0 2.67578,-0.99609 0.99609,-0.9961 0.99609,-2.34375 0,-0.95704 -0.625,-1.91407 -0.625,-0.95703 -2.96875,-2.1289 -4.51171,-2.2461 -6.09375,-3.28125 -1.58203,-1.05469 -2.53906,-2.69532 -0.95703,-1.64062 -0.95703,-3.76953 0,-3.41797 2.44141,-5.625 2.46093,-2.22656 5.68359,-2.22656 3.37891,0 5.74219,2.26563 0.39062,-0.58594 0.64453,-1.79688 h 2.24609 v 7.8125 h -2.1875 q -0.58593,-2.59766 -2.22656,-4.27734 -1.64062,-1.67969 -3.69141,-1.67969 -1.54296,0 -2.46093,0.85937 -0.89844,0.85938 -0.89844,2.14844 0,0.9961 0.58594,1.85547 0.58593,0.83984 1.58203,1.40625 0.99609,0.54688 4.21875,2.05078 2.89062,1.36719 4.27734,2.44141 1.38672,1.07422 2.1875,2.71484 0.82031,1.6211 0.82031,3.51563 0,3.51562 -2.59765,5.85937 -2.59766,2.32422 -6.19141,2.32422 -2.05078,0 -4.02344,-0.85937 -1.95312,-0.85938 -3.125,-2.28516 -0.44921,0.87891 -0.66406,2.14844 z"
         id="path1127"
         style="fill:#ffffff" />
      <path
         d="m 219.22266,402.56691 v 7.28516 q 0,1.85547 0.64453,2.55859 0.64453,0.6836 2.77343,0.6836 v 2.16797 h -13.80859 v -2.16797 q 2.08984,0 2.77344,-0.64453 0.70312,-0.66407 0.70312,-2.59766 v -15.66406 q 0,-1.875 -0.66406,-2.5586 -0.64453,-0.68359 -2.8125,-0.68359 v -2.16797 h 13.80859 v 2.16797 q -2.07031,0 -2.7539,0.68359 -0.66406,0.66407 -0.66406,2.5586 v 5.9375 h 10.8789 v -5.9375 q 0,-1.83594 -0.64453,-2.53907 -0.625,-0.70312 -2.71484,-0.70312 v -2.16797 h 13.76953 v 2.16797 q -2.10938,0 -2.8125,0.64453 -0.6836,0.64453 -0.6836,2.59766 v 15.66406 q 0,1.89453 0.66407,2.57812 0.66406,0.66407 2.83203,0.66407 v 2.16797 h -13.76953 v -2.16797 q 2.05078,0 2.69531,-0.6836 0.66406,-0.68359 0.66406,-2.55859 v -7.28516 z"
         id="path1129"
         style="fill:#ffffff" />
      <path
         d="m 244.59375,412.43019 q 0,-1.44531 1.03516,-2.48046 1.03515,-1.05469 2.5,-1.05469 1.46484,0 2.5,1.05469 1.03515,1.03515 1.03515,2.48046 0,1.46485 -1.05469,2.5 -1.03515,1.03516 -2.48046,1.03516 -1.44532,0 -2.5,-1.03516 -1.03516,-1.03515 -1.03516,-2.5 z"
         id="path1131"
         style="fill:#ffffff" />
      <path
         d="m 271.70312,410.34035 1.99219,0.87891 q -0.82031,2.24609 -2.98828,3.47656 -2.14844,1.21094 -5.01953,1.21094 -3.92578,0 -6.66016,-2.1875 -2.71484,-2.20703 -2.71484,-6.07422 0,-4.0625 2.96875,-6.54297 2.96875,-2.48047 7.69531,-2.48047 2.92969,0 4.62891,1.07422 1.71875,1.07422 1.71875,2.83203 0,0.99609 -0.6836,1.75781 -0.66406,0.74219 -1.73828,0.74219 -2.1289,0 -2.71484,-2.77344 -0.17578,-0.82031 -0.52734,-1.17187 -0.35157,-0.35156 -1.21094,-0.35156 -1.73828,0 -2.61719,1.38671 -0.85937,1.36719 -0.85937,4.1211 0,3.76953 1.03515,5.42969 1.05469,1.64062 3.28125,1.64062 3.04688,0 4.41406,-2.96875 z"
         id="path1133"
         style="fill:#ffffff" />
      <path
         d="m 275.94141,407.21535 q 0,-4.02344 2.85156,-6.30859 2.85156,-2.28516 6.89453,-2.28516 3.94531,0 6.875,2.22656 2.92969,2.20703 2.92969,6.38672 0,3.96485 -2.8711,6.32813 -2.87109,2.34375 -6.95312,2.34375 -3.98438,0 -6.85547,-2.22657 -2.87109,-2.24609 -2.87109,-6.46484 z m 6.69921,-0.19531 q 0,3.75 0.6836,5.2539 0.70312,1.48438 2.42187,1.48438 1.38672,0 2.20703,-1.25 0.83985,-1.25 0.83985,-5.33203 0,-3.71094 -0.74219,-5.01953 -0.74219,-1.32813 -2.34375,-1.32813 -1.26953,0 -2.16797,1.13281 -0.89844,1.11329 -0.89844,5.0586 z"
         id="path1135"
         style="fill:#ffffff" />
      <path
         d="m 306.78125,404.48098 v 6.15234 q 0,1.46484 0.46875,2.01172 0.46875,0.54687 1.97266,0.54687 v 2.07032 h -11.77735 v -2.07032 h 0.50781 q 1.67969,0 2.10938,-0.5664 0.42969,-0.58594 0.42969,-1.99219 v -5.46875 q 0,-1.48438 -0.46875,-2.03125 -0.46875,-0.56641 -2.20703,-0.56641 v -2.07031 l 8.63281,-1.42578 q 0.33203,0.85937 0.33203,2.53906 1.32812,-1.5039 3.00781,-2.24609 1.69922,-0.74219 3.73047,-0.74219 2.22656,0 3.65234,0.85938 1.44532,0.83984 2.08985,2.55859 1.23047,-1.71875 2.89062,-2.55859 1.66016,-0.85938 3.76953,-0.85938 1.73829,0 3.16407,0.64453 1.42578,0.625 2.16797,1.58203 0.74218,0.9375 0.97656,1.89453 0.2539,0.9375 0.2539,2.73438 v 5.15625 q 0,1.52344 0.48829,2.05078 0.50781,0.50781 2.36328,0.50781 v 2.07032 h -11.5625 v -2.07032 q 1.5039,0 1.93359,-0.5664 0.44922,-0.56641 0.44922,-1.99219 v -5.60547 q 0,-1.64062 -0.60547,-2.46094 -0.60547,-0.82031 -1.83594,-0.82031 -1.15234,0 -2.16797,0.68359 -1.01562,0.6836 -1.89453,2.05079 v 6.15234 q 0,1.44531 0.46875,2.01172 0.46875,0.54687 1.97266,0.54687 v 2.07032 h -11.11328 v -2.07032 q 1.44531,-0.0195 1.89453,-0.5664 0.44922,-0.54688 0.44922,-1.99219 v -5.56641 q 0,-1.62109 -0.60547,-2.42187 -0.58594,-0.82031 -1.79688,-0.82031 -1.05468,0 -2.08984,0.66406 -1.03516,0.66406 -2.05078,1.99219 z"
         id="path1137"
         style="fill:#ffffff" />
    </g>
  </g>
</svg>
